<?xml version="1.0" encoding="utf-8"?>
<!-- Generator: Adobe Illustrator 17.0.0, SVG Export Plug-In . SVG Version: 6.00 Build 0)  -->
<!DOCTYPE svg PUBLIC "-//W3C//DTD SVG 1.1//EN" "http://www.w3.org/Graphics/SVG/1.1/DTD/svg11.dtd">
<svg version="1.1" id="Layer_1" xmlns="http://www.w3.org/2000/svg" xmlns:xlink="http://www.w3.org/1999/xlink" x="0px" y="0px"
	 width="847.333px" height="792px" viewBox="0 0 847.333 792" enable-background="new 0 0 847.333 792" xml:space="preserve">
<g>
	<path d="M811.544,574.215c-1.222,2.768-3.648,3.6-6.358,3.784c-9.471,0.645-18.946,1.739-28.419,1.728
		c-30.512-0.037-61.024-0.451-91.535-0.806c-11.072-0.129-22.141-0.482-33.21-0.785c-1.317-0.036-2.185,0.254-2.97,1.425
		c-6.855,10.232-16.941,15.039-28.79,16.109c-14.097,1.273-27.537-1.752-40.286-7.787c-5.986-2.834-11.222-6.687-15.223-12.088
		c-0.446-0.603-1.413-1.125-2.161-1.155c-25.082-1.034-50.166-2.014-75.251-2.944c-0.855-0.032-1.932,0.285-2.567,0.832
		c-9.527,8.204-20.736,12.707-32.928,14.995c-9.782,1.835-19.612,3.18-29.626,2.583c-11.928-0.711-23.639-2.395-34.874-6.718
		c-7.885-3.034-15.279-6.797-21.264-12.946c-0.534-0.549-1.551-0.864-2.352-0.881c-18.556-0.396-37.113-0.749-55.671-1.039
		c-0.737-0.012-1.726,0.477-2.191,1.058c-12.164,15.18-28.075,23.169-47.298,25.112c-12.301,1.244-24.455,0.705-36.634-1.436
		c-16.902-2.971-30.608-11.058-41.063-24.622c-1.327-1.721-2.715-2.477-4.906-2.339c-3.701,0.235-7.42,0.241-11.131,0.226
		c-1.415-0.006-2.326,0.492-3.125,1.641c-2.782,4-6.436,7.042-10.704,9.353c-7.489,4.054-17.453,2.548-23.308-3.632
		c-1.095-1.156-1.951-2.64-2.564-4.12c-0.528-1.274-1.143-1.688-2.496-1.613c-13.38,0.739-26.764,1.394-40.145,2.123
		c-16.396,0.893-32.788,2.033-49.217,0.92c-2.242-0.152-4.482-0.591-6.672-1.112c-0.917-0.218-1.879-0.848-2.482-1.572
		c-0.416-0.5-0.559-1.647-0.261-2.203c0.297-0.553,1.353-1.11,1.979-1.016c15.536,2.306,31.015,0.208,46.5-0.581
		c16.461-0.839,32.909-1.934,49.366-2.849c1.529-0.085,2.202-0.493,2.411-2.095c0.4-3.057,2.04-5.612,4.3-7.571
		c7.843-6.8,12.493-15.558,15.497-25.247c2.231-7.196,4.116-14.508,5.908-21.828c0.62-2.533,0.568-5.244,0.695-7.88
		c0.106-2.205-3.149-5.476-5.722-5.642c-3.133-0.202-6.282-0.254-9.423-0.219c-7.645,0.086-14.031-3.965-16.782-10.839
		c-0.461-1.152-0.734-2.406-0.909-3.64c-0.216-1.522,0.211-2.757,1.681-3.674c1.094-0.682,2.007-1.721,2.851-2.726
		c9.459-11.262,16.283-23.856,19.334-38.356c0.816-3.878,1.766-7.728,2.615-11.599c2.072-9.448,5.331-18.354,12.013-26.091
		c-2.5-0.233-4.708-0.366-6.896-0.655c-18.064-2.383-30.943-12.066-39.31-28.043c-0.521-0.995-0.898-2.081-1.212-3.162
		c-0.142-0.488,0.033-1.068,0.065-1.606c0.526,0.074,1.106,0.028,1.568,0.24c5.471,2.506,11.193,4.006,17.207,3.33
		c8.253-0.927,14.065-5.764,19.065-12.688c-2.102,0.335-3.663,0.726-5.24,0.81c-7.543,0.401-14.555-1.433-21.22-4.963
		c-8.818-4.67-15.325-11.715-20.914-19.766c-1.148-1.654-2.413-3.242-3.389-4.992c-0.42-0.754-0.655-2.245-0.232-2.679
		c0.553-0.569,1.877-0.665,2.804-0.526c1.154,0.173,2.241,0.794,3.357,1.22c6.75,2.573,12.956,1.771,18.529-2.981
		c5.551-4.734,10.278-10.194,14.041-16.432c4.367-7.239,8.112-14.811,10.46-22.955c4.033-13.989,9.385-27.48,14.771-40.98
		c3.37-8.446,7.017-16.624,12.672-23.869c7.52-9.635,16.62-17.004,27.987-21.68c10.493-4.317,21.185-7.004,32.646-6.333
		c15.295,0.895,27.818,7.184,37.594,18.885c1.49,1.784,2.455,4.09,3.306,6.293c0.462,1.197,0.953,1.522,2.115,1.495
		c4.526-0.102,8.844,0.916,13.078,2.458c9.412,3.429,15.978,10.156,20.842,18.552c5.394,9.311,9.267,19.257,10.743,30.022
		c1.324,9.652,0.693,19.164-1.418,28.674c-1.251,5.632-1.973,11.393-2.718,17.123c-0.651,5.011,0.138,9.922,1.876,14.656
		c2.815,7.667,8.397,11.83,16.442,12.805c1.81,0.22,3.647,0.326,5.417,0.724c0.727,0.163,1.638,0.851,1.858,1.504
		c0.181,0.536-0.345,1.617-0.884,2.045c-7.285,5.781-15.188,10.335-24.554,11.767c-4.651,0.711-9.277,0.905-13.901-2.062
		c0.297,1.314,0.461,2.148,0.676,2.968c1.488,5.687,4.519,10.537,8.555,14.68c5.432,5.576,12.501,6.593,19.862,6.351
		c0.797-0.026,1.546-0.775,2.367-1.03c0.649-0.202,1.373-0.16,2.064-0.226c0.067,0.693,0.404,1.506,0.159,2.062
		c-4.049,9.188-10.07,16.359-20.113,19.332c-1.144,0.339-2.264,0.758-3.393,1.145c-0.052,0.018-0.086,0.088-0.262,0.278
		c3.273,2.87,6.353,6.008,9.873,8.533c3.557,2.552,7.395,4.845,11.387,6.629c7.457,3.332,15.111,6.221,22.694,9.269
		c0.8,0.322,1.666,0.477,2.517,0.714c0.053-0.269,0.131-0.424,0.088-0.474c-4.643-5.421-4.915-11.829-3.905-18.392
		c1.019-6.623,2.973-12.989,6.282-18.882c1.016-1.81,1.866-3.715,2.931-5.494c5.613-9.38,5.182-19.178,2.05-29.15
		c-0.866-2.758-1.9-5.467-2.936-8.168c-4.419-11.529-5.092-23.344-2.092-35.238c4.894-19.403,13.685-36.74,28.452-50.602
		c8.129-7.631,17.312-13.593,28.459-15.828c10.272-2.059,20.507-1.427,30.701,0.777c8.223,1.777,15.858,4.849,22.494,10.09
		c7.252,5.727,11.736,13.465,14.687,21.985c2.729,7.88,5.298,15.87,6.055,24.28c0.888,9.862,0.67,19.595-2.738,29.065
		c-2.499,6.945-4.443,13.997-4.417,21.511c0.022,6.351,1.435,12.191,4.9,17.537c3.831,5.911,7.737,11.78,11.365,17.815
		c4.88,8.116,6.012,16.788,3.34,25.962c-1.712,5.878-4.53,11.152-7.937,16.189c-2.004,2.963-3.742,6.105-5.628,9.149
		c-0.581,0.938-0.503,1.605,0.302,2.456c1.16,1.227,2.236,2.581,3.105,4.027c6.223,10.349,12.401,20.725,18.547,31.12
		c0.86,1.455,1.566,3.022,2.168,4.603c0.766,2.011,0.219,3.553-1.779,4.322c-1.971,0.759-4.1,1.118-6.17,1.611
		c-2.016,0.48-4.106,0.728-6.058,1.39c-5.05,1.713-10.042,3.597-15.167,5.453c0.973,1.742,2.137,3.585,3.071,5.538
		c3.555,7.433,7.043,14.899,10.541,22.359c4.504,9.604,10.474,18.171,17.889,25.766c1.982,2.03,4.258,3.286,6.941,3.928
		c3.44,0.823,5.514-0.555,5.576-4.112c0.054-3.116-0.047-6.324-0.728-9.346c-1.82-8.082-5.163-15.64-8.896-22.998
		c-3.756-7.404-7.726-14.699-11.595-22.046c-0.497-0.945-1.092-1.875-1.372-2.887c-0.225-0.81-0.041-1.733-0.038-2.606
		c0.807,0.371,1.721,0.61,2.392,1.151c0.716,0.577,1.264,1.397,1.778,2.182c6.876,10.5,13.088,21.344,17.117,33.308
		c0.114,0.337,0.286,0.655,0.511,1.164c0.414-0.517,0.765-0.864,1.009-1.274c3.962-6.637,7.897-13.291,11.879-19.916
		c0.605-1.007,0.465-1.689-0.395-2.431c-1.094-0.944-2.116-1.973-3.147-2.988c-1.438-1.415-1.482-2.531-0.268-4.137
		c7.811-10.331,15.598-20.679,23.44-30.986c0.839-1.103,1.059-2.07,0.73-3.441c-1.174-4.885-0.656-9.65,1.683-14.113
		c2.573-4.909,7.066-6.638,12.055-4.257c3.196,1.525,6.043,3.784,9.028,5.741c0.512,0.336,0.935,0.809,1.051,0.912
		c3.843-1.743,7.439-3.342,10.996-5.024c0.498-0.235,1.131-0.862,1.146-1.326c0.083-2.573-0.015-5.151-0.032-7.728
		c-0.008-1.168-0.566-1.654-1.69-2.095c-5.199-2.041-10.459-3.994-15.456-6.465c-6.734-3.33-11.613-8.724-15.216-15.283
		c-0.298-0.543-0.612-1.077-1.153-2.028c-0.231,0.956-0.373,1.514-0.5,2.076c-3.176,14.085-16.974,22.2-30.805,18.113
		c-5.321-1.572-9.335-4.842-12.182-9.548c-1.203-1.988-2.266-4.062-3.336-6.126c-0.528-1.019-0.665-2.119,0.436-2.868
		c1.131-0.77,2.029-0.081,2.816,0.712c1.328,1.337,2.522,2.831,3.968,4.021c3.593,2.957,6.906,2.732,10.229-0.546
		c3.827-3.775,4.86-8.432,3.363-13.386c-1.521-5.033-3.365-10.015-5.583-14.778c-3.439-7.386-6.564-14.815-7.953-22.908
		c-2.659-15.496,4.132-28.671,18.502-35.095c16.906-7.558,33.17-5.968,48.713,3.939c0.262,0.167,0.531,0.322,0.48,0.292
		c14.829-8.566,29.991-9.678,45.388-2.944c16.059,7.023,22.334,21.053,25.041,37.542c0.791-0.311,1.395-0.558,2.005-0.788
		c3.664-1.386,7.484-0.368,9.353,3.065c4.113,7.553,4.649,15.296,0.294,23.021c-0.337,0.598-0.773,1.152-1.231,1.666
		c-3.17,3.565-6.75,3.473-9.709-0.231c-0.306-0.383-0.609-0.769-1.14-1.44c-0.203,0.892-0.349,1.468-0.464,2.05
		c-1.833,9.237-5.973,17.324-12.237,24.318c-4.964,5.542-10.866,9.704-18.064,11.876c-2.891,0.872-5.753,1.847-8.668,2.626
		c-1.278,0.342-1.779,0.931-1.675,2.226c0.165,2.057,0.242,4.121,0.367,6.36c3.814,0.524,7.539,0.984,11.245,1.563
		c2.357,0.369,4.833,1.623,6.987,1.18c2.109-0.434,3.824-2.607,5.818-3.846c1.376-0.855,2.88-1.579,4.418-2.089
		c5.834-1.936,11.219-0.381,14.751,4.13c3.991,5.097,4.441,10.838,1.072,16.12c-0.794,1.245-0.545,1.928,0.309,2.889
		c4.677,5.262,9.304,10.569,13.947,15.861c0.208,0.236,0.414,0.474,0.618,0.714c3.372,3.962,3.458,4.719,1.032,9.023
		c5.791,5.482,11.661,10.884,17.341,16.479c3.577,3.523,6.963,7.254,10.25,11.051c2.046,2.363,3.185,5.271,3.583,8.4
		c0.925,7.274-3.078,11.482-10.867,10.927c-5.508-0.393-10.226-2.979-14.43-6.444c-6.076-5.007-10.825-11.198-15.376-17.552
		c-0.363-0.507-0.711-1.026-1.072-1.548c-2.398,2.356-3.522,2.423-5.982,0.062c-1.994-1.914-3.835-3.99-5.717-6.018
		c-0.409-0.441-0.709-0.983-1.059-1.479c-0.155,0.107-0.309,0.214-0.464,0.32c0,0.411-0.025,0.823,0.004,1.232
		c0.718,10.205-0.438,20.224-3.109,30.071c-0.355,1.309,0.359,1.671,1.15,2.188c5.052,3.303,8,7.968,8.611,13.952
		c0.701,6.871-2.792,10.326-9.669,9.834c-0.239-0.017-0.481-0.002-0.977-0.002c2.254,6.011,1.225,11.717-1.247,17.482
		c0.757,0.092,1.297,0.205,1.838,0.217c43.841,0.95,87.677,2.303,131.537,1.542c6.1-0.106,12.203-0.283,18.3-0.184
		c1.783,0.029,3.551,0.907,5.331,1.378c0.286,0.076,0.598,0.054,0.897,0.077C811.544,573.963,811.544,574.089,811.544,574.215z
		 M363.382,464.211c12.688,0.073,25.375,1.168,38.064-0.015c8.006-0.746,16.054-1.153,24.016-2.216
		c6.297-0.841,12.448-2.633,17.972-5.965c5.716-3.447,7.333-8.644,4.648-14.745c-2.744-6.234-8.079-8.736-14.406-8.827
		c-4.287-0.062-8.652,0.668-12.876,1.55c-15.744,3.29-31.542,4.959-47.586,2.595c-0.444-0.065-1.168,0.348-1.436,0.754
		c-1.628,2.463-3.107,5.025-4.74,7.484c-1.918,2.889-3.238,6.035-3.534,9.45c-0.285,3.289-0.094,6.619-0.109,9.93
		c0.735,6.132,0.641,12.074-4.018,16.775c5.704,6.024,13.137,7.924,20.499,9.731c0-6.867-0.03-13.842,0.025-20.817
		c0.011-1.419-0.511-1.9-1.881-2.198C373.121,466.629,368.258,465.387,363.382,464.211z M192.168,382.966
		c0.13,0.135,0.26,0.269,0.39,0.404c-2.229,1.481-4.327,3.228-6.711,4.393c-7.409,3.62-15.238,5.88-23.509,6.396
		c-1.071,0.067-1.813,0.2-2.368,1.346c-4.498,9.278-7.981,18.889-9.77,29.068c-2.028,11.543-6.433,22.2-12.051,32.397
		c-2.714,4.927-5.962,9.471-10.122,13.318c-1.708,1.58-3.379,3.205-4.979,4.894c-0.382,0.403-0.746,1.315-0.548,1.7
		c2.399,4.668,5.515,8.325,11.363,8.665c3.802,0.221,7.637,0.699,11.34,1.565c4.723,1.105,8.066,4.503,11.216,7.97
		c3.16,3.478,7.262,5.041,11.663,6.112c1.141,0.278,1.765-0.066,2.173-1.139c2.166-5.694,4.845-11.245,6.433-17.094
		c2.335-8.602,4.101-17.375,5.737-26.145c1.794-9.612,2.727-19.312,0.65-29.045c-0.043-0.201,0.118-0.446,0.184-0.673
		c1.345,0.413,1.69,0.733,2.361,2.82c1.778,5.532,2.226,11.249,1.677,16.977c-0.592,6.191-1.428,12.369-2.429,18.508
		c-3.188,19.54-8.369,38.353-20.352,54.64c-2.262,3.074-2.12,3.153,0.777,5.621c4.375,3.727,9.757,5.414,14.992,7.359
		c5.236,1.946,10.425,1.752,15.607-0.524c3.792-1.665,7.674-3.186,11.629-4.406c5.774-1.78,10.927-0.218,15.406,3.705
		c1.086,0.951,2.016,2.078,3.089,3.046c2.891,2.61,5.632,5.438,8.778,7.698c4.26,3.061,8.942,3.904,13.765,0.941
		c3-1.843,6.05-3.606,9.053-5.444c7.258-4.442,14.871-4.682,22.648-1.735c2.631,0.997,5.083,2.473,7.595,3.773
		c3.196,1.654,6.51,2.612,10.164,2.166c11.295-1.378,19.976-7.303,27.207-15.476c-2.008-2.168-4.135-4.215-5.961-6.501
		c-2.038-2.551-3.795-5.326-5.691-7.992c-12.475-17.539-15.922-37.174-13.411-58.156c0.158-1.322-0.124-2.133-1.046-2.941
		c-3.736-3.274-7.473-6.549-11.144-9.896c-0.5-0.456-0.631-1.316-0.933-1.989c0.737-0.141,1.591-0.589,2.187-0.362
		c1.45,0.553,2.865,1.298,4.147,2.179c11.309,7.769,21.1,17.295,30.746,26.953c5.098,5.104,9.237,10.967,11.893,17.765
		c0.352,0.9,0.751,1.782,1.029,2.439c4.496-2.607,8.715-5.366,13.203-7.58c6.527-3.22,9.049-8.283,8.329-15.354
		c-0.292-2.865-0.369-5.784-0.199-8.658c0.415-7.009,3.172-13.188,7.461-18.638c3.116-3.959,2.704-7.999,1.024-12.263
		c-0.359-0.91-0.81-1.115-1.836-1.036c-2.354,0.182-4.828,0.518-7.081,0.019c-11.557-2.563-22.473-6.892-32.74-12.782
		c-5.854-3.358-10.147-8.184-12.666-14.494c-0.368-0.922-0.823-1.121-1.832-1.056c-4.941,0.318-9.908,0.873-14.834,0.65
		c-11.727-0.532-22.337-4.159-30.955-12.531c-4.629-4.497-8.774-9.364-11.58-15.248c-0.12-0.251-0.335-0.457-0.7-0.942
		c-1.814,5.207-2.21,10.183-1.106,15.277c1.65,7.612,6.914,12.473,12.809,16.865c0.466,0.347,1.164,0.935,1.104,1.306
		c-0.089,0.55-0.668,1.243-1.203,1.45c-1.093,0.423-2.289,0.754-3.453,0.791c-10.157,0.319-20.297-0.39-30.23-2.315
		c-15.027-2.913-25.939-12.041-33.859-24.783c-2.119-3.408-3.779-7.363-4.572-11.284c-2.334-11.535-0.399-22.47,6.611-32.109
		c3.545-4.874,7.602-9.38,11.479-14.008c2.619-3.127,4.676-6.527,5.809-10.479c1.018-3.552,0.781-6.954-0.839-10.277
		c-1.102-2.261-2.161-4.544-3.222-6.825c-2.12-4.557-2.57-9.255-1.426-14.172c1.704-7.322,5.055-13.787,9.889-19.492
		c0.411-0.485,1.354-0.519,2.049-0.763c-0.077,0.625,0.038,1.368-0.262,1.857c-3.082,5.028-5.337,10.394-6.619,16.145
		c-1.129,5.064-0.844,9.987,1.681,14.668c1.134,2.102,2.114,4.287,3.139,6.447c2.287,4.823,2.614,9.776,1.025,14.879
		c-1.174,3.773-2.934,7.23-5.446,10.274c-2.403,2.911-4.936,5.714-7.322,8.637c-2.225,2.726-4.692,5.342-6.429,8.365
		c-6.662,11.588-7.689,23.497-0.529,35.245c6.283,10.308,15.282,17.628,26.88,21.066c6.527,1.935,13.4,2.739,20.146,3.88
		c2.417,0.409,4.919,0.312,7.382,0.446c-0.268-0.787-0.599-1.148-0.99-1.426c-3.201-2.279-5.21-5.4-6.47-9.063
		c-3.497-10.166-2.382-19.838,3.259-28.946c1.652-2.667,3.621-5.14,5.49-7.669c4.351-5.886,6.926-14.943,0.516-23.248
		c-2.265-2.935-4.363-6.007-6.413-9.099c-3.146-4.746-4.107-9.96-2.847-15.521c1.427-6.299,4.125-12.003,8.34-16.93
		c0.934-1.092,2.032-2.063,3.151-2.969c0.484-0.392,1.215-0.48,1.834-0.706c0.116,0.167,0.231,0.334,0.347,0.501
		c-0.37,0.613-0.698,1.256-1.118,1.833c-3.024,4.159-5.317,8.666-6.763,13.619c-1.969,6.745-1.153,12.903,3.416,18.452
		c2.157,2.619,4.146,5.382,6.135,8.134c4.684,6.483,5.334,13.48,2.149,20.723c-1.201,2.731-2.913,5.266-4.606,7.744
		c-1.664,2.436-3.676,4.634-5.362,7.057c-0.426,0.612-0.572,1.915-0.208,2.51c8.011,13.102,18.259,23.244,34.367,25.408
		c2.181,0.293,4.375,0.495,6.565,0.725c7.255,0.76,14.314-0.183,21.196-2.524c5.074-1.725,9.122-4.829,12.597-9.478
		c-1.157,0.06-1.878,0.109-2.599,0.133c-7.254,0.247-13.729-1.8-18.913-6.979c-6.238-6.231-10.719-13.616-12.139-22.378
		c-1.817-11.217-1.355-22.488,1.303-33.541c2.882-11.98,2.969-24.03,1.918-36.188c-0.886-10.247-5.576-18.812-11.595-26.822
		c-0.42-0.558-0.785-1.158-1.176-1.738c0.159-0.201,0.318-0.402,0.477-0.602c1.229,0.72,2.636,1.248,3.658,2.191
		c7.25,6.689,12.658,14.545,14.261,24.479c0.698,4.328,0.946,8.751,1.102,13.141c0.412,11.579-1.898,22.905-3.27,34.328
		c-0.905,7.532-1.015,15.16-1.471,22.746c-0.075,1.245,0.345,1.817,1.786,1.982c8.999,1.029,17.366-1.226,25.437-4.838
		c2.234-1,4.176-2.652,6.252-4.005c-0.055-0.177-0.111-0.353-0.166-0.53c-0.974-0.072-1.951-0.114-2.92-0.22
		c-7.488-0.822-13.677-3.778-17.268-10.791c-3.014-5.886-4.522-12.206-4.083-18.781c0.405-6.069,0.931-12.203,2.235-18.125
		c3.013-13.688,3.195-27.194-1.057-40.629c-2.89-9.13-7.284-17.357-14.337-24.046c-7.245-6.871-15.549-11.006-25.75-10.634
		c-1.49,0.054-2.761-0.074-3.69-1.62c-1.835-3.054-3.569-6.262-5.912-8.903c-12.47-14.052-28.252-18.543-46.432-15.32
		c-7.643,1.355-15.166,3.278-21.36,8.387c-13.784,11.366-25.158,24.493-31.718,41.489c-4.985,12.916-10.023,25.789-13.869,39.104
		c-2.404,8.325-6.049,16.134-10.432,23.589c-4.087,6.952-9.295,12.981-15.501,18.128c-5.75,4.769-12.229,6.537-19.569,4.565
		c-0.309-0.083-0.644-0.073-1.113-0.121c8.631,10.952,19.816,22.442,45.353,22.178c1.879-5.288,2.564-10.581,0.816-16.177
		c-1.664-5.328-3.415-10.731-4.138-16.231c-1.415-10.778,2.548-19.555,11.759-25.546c4.631-3.012,9.726-5.312,14.357-8.325
		c7.928-5.158,12.886-12.189,11.962-22.137c-0.264-2.839-1.12-5.683-2.108-8.377c-1.076-2.934-2.658-5.68-3.927-8.548
		c-0.202-0.457,0.077-1.127,0.134-1.699c0.517,0.223,1.238,0.299,1.52,0.692c2.34,3.261,4.982,6.384,6.803,9.923
		c3.824,7.434,4.951,15.181,0.768,22.962c-3.112,5.787-7.339,10.452-13.384,13.372c-3.677,1.776-7.181,3.905-10.806,5.792
		c-8.037,4.182-11.811,14.605-10.292,22.588c0.796,4.186,2.292,8.234,3.214,12.402c0.714,3.227,1.558,6.564,1.426,9.815
		c-0.547,13.483-7.266,23.145-19.236,29.127c-6.628,3.313-13.449,4.037-20.292,0.422c-0.18-0.095-0.421-0.076-0.75-0.13
		c0.15,0.323,0.202,0.511,0.311,0.655c0.646,0.852,1.292,1.705,1.963,2.537c9.799,12.16,22.315,18.753,38.107,19.169
		C168.942,390.823,180.765,388.007,192.168,382.966z M412.16,430.847c-0.384-1.11-0.668-2.07-1.043-2.992
		c-2.111-5.19-2.445-10.627-2.264-16.133c0.305-9.288,3.343-17.724,8.006-25.662c2.803-4.771,5.891-9.42,8.216-14.419
		c4.316-9.28,6.589-18.997,4.207-29.31c-0.046-0.199,0.09-0.44,0.243-1.098c0.644,0.697,1.204,1.083,1.45,1.615
		c0.497,1.077,0.951,2.206,1.202,3.361c2.051,9.449,0.688,18.574-3.29,27.231c-2.25,4.897-5.097,9.54-7.917,14.149
		c-5.233,8.554-8.295,17.749-8.696,27.779c-0.207,5.175,0.227,10.278,2.402,15.221c1.001-0.152,1.92-0.339,2.848-0.425
		c5.002-0.464,9.999-1.137,15.011-1.282c4.769-0.138,9.114,1.577,13.042,4.305c6.472,4.495,10.652,16.504,2.105,23.693
		c-0.132,0.111-0.181,0.32-0.273,0.492c4.989,8.72,3.882,17.602,0.744,26.655c1.546-1.195,2.962-2.423,4.173-3.827
		c5.019-5.818,8.149-12.665,10.496-19.891c2.175-6.697,2.554-13.527,1.519-20.51c-1.244-8.395-2.281-16.822-3.31-25.247
		c-0.693-5.674,0.662-11.001,3.193-16.053c0.294-0.586,0.911-1.01,1.532-1.672c0.224,0.633,0.318,0.759,0.297,0.862
		c-0.159,0.8-0.302,1.605-0.519,2.39c-1.472,5.33-1.535,10.669-0.235,16.045c0.783,3.24,1.6,6.479,2.178,9.759
		c1.135,6.435,2.776,12.872,3.025,19.353c0.561,14.607-4.877,27.263-14.848,37.765c-2.948,3.105-7.093,5.105-10.808,7.421
		c-0.672,0.419-1.92-0.085-2.902-0.163c0.13-0.918-0.035-2.038,0.434-2.723c6.204-9.05,5.539-18.825,3.334-29.035
		c-1.282,0.715-2.323,1.433-3.468,1.898c-1.35,0.549-1.572,1.432-1.564,2.789c0.027,4.77,0.35,9.604-0.296,14.296
		c-1.026,7.459-3.257,14.606-8.218,20.588c-4.076,4.915-9.52,7.752-15.308,9.993c-0.813,0.315-2.477-0.081-2.921-0.722
		c-0.45-0.649-0.078-2.093,0.313-3.031c0.342-0.819,1.211-1.418,1.846-2.115c6.365-6.986,8.747-15.307,8.251-24.618
		c-3.029,7.851-8.017,14.066-15.175,18.59c4.157-9.085,10.723-17.197,10.432-28.095c-1.412,0.181-2.696,0.442-3.988,0.487
		c-1.803,0.063-2.834,0.583-2.417,2.676c0.166,0.833,0.002,1.761-0.142,2.623c-1.473,8.774-5.593,16.091-12.303,21.908
		c-0.682,0.591-1.844,0.628-2.783,0.923c-0.144-0.93-0.552-1.909-0.389-2.781c0.865-4.609,1.377-9.223,0.478-13.87
		c-0.548-2.835-1.281-5.636-1.954-8.446c-0.602-2.513-0.864-2.649-3.478-1.946c-0.772,8.845-2.85,13.827-7.053,16.448
		c0.573-3.032,1.136-5.857,1.633-8.693c0.402-2.289,0.787-4.586,1.031-6.894c0.049-0.466-0.495-1.35-0.9-1.441
		c-1.316-0.297-2.695-0.315-4.112-0.446c0.256,3.613,0.581,7.039,0.73,10.473c0.734,16.91,1.18,33.799-4.758,50.134
		c29.985,19.427,60.676,21.207,92.013,3.338c0-9.581-0.266-18.821,0.067-28.039c0.425-11.777,2.492-23.37,4.994-34.875
		c0.103-0.475,0.517-0.882,0.786-1.321c0.34,0.459,0.968,0.917,0.968,1.376c0,1.751-0.166,3.506-0.335,5.254
		c-0.361,3.725-0.763,7.447-1.156,11.246c8.307-1.223,31.703-7.672,33.358-9.126c-7.128-12.527-14.25-25.043-21.298-37.428
		c-2.603,4.33-4.08,10.888-3.216,16.016c0.383,2.27,1.339,4.439,1.892,6.689c0.149,0.606-0.226,1.34-0.36,2.015
		c-0.7-0.231-1.414-0.43-2.093-0.712c-0.193-0.08-0.286-0.399-0.425-0.609c-5.164-7.806-8.982-16.066-9.828-25.598
		c-0.575-6.474-1.154-12.913-0.714-19.801c2.245,11.701,1.942,23.545,7.309,34.182c0.333-1.554,0.333-3.123,0.665-4.618
		c1.969-8.883,5.583-17.055,10.759-24.546c1.893-2.74,3.886-5.447,5.449-8.374c5.718-10.709,6.137-21.353-0.886-31.749
		c-3.099-4.586-6.149-9.204-9.294-13.758c-2.695-3.903-5.191-7.895-6.328-12.566c-2.043-8.39-1.575-16.743,0.694-24.996
		c1.4-5.091,3.613-10.004,4.568-15.162c3.857-20.826-1.072-39.521-14.512-55.921c-2.907-3.546-6.451-6.379-10.553-8.418
		c-6.793-3.377-14.009-5.564-21.391-7.219c-0.91-0.204-1.881-0.285-2.812-0.229c-7.057,0.426-14.059,0.464-20.984,2.839
		c-7.018,2.407-13.559,5.441-19.295,10.015c-15.063,12.012-24.543,27.774-30.015,46.047c-2.766,9.239-3.49,18.72-1.359,28.172
		c1.24,5.501,3.273,10.822,4.931,16.23c3.566,11.628,3.96,23.018-2.538,33.9c-0.805,1.349-1.581,2.73-2.206,4.168
		c-2.001,4.605-4.302,9.127-5.786,13.899c-2.027,6.522-2.658,13.185,0.759,19.633c1.434,2.706,1.317,2.807,4.448,1.949
		c1.833-0.503,3.186-0.064,4.141,1.63c1.66,2.944,2.805,6.04,2.985,9.447c0.032,0.604,0.095,1.206,0.153,1.916
		C386.021,433.858,399.084,433.788,412.16,430.847z M361.444,562.29c-1.077-6.525,1.355-11.961,3.985-17.259
		c2.663-5.364,5.63-10.592,10.742-13.172c0.186-1.567,0.375-2.598,0.413-3.634c0.036-0.973,0.694-1.964-0.554-2.871
		c-3.593-2.61-6.06-6.122-7.845-10.187c-3.485-7.933-5.116-16.286-5.934-24.848c-0.063-0.659-0.16-1.498-0.579-1.906
		c-1.701-1.659-3.535-3.184-5.481-4.9c-0.129,0.073-0.668,0.382-1.214,0.679c-5.41,2.946-10.816,5.898-16.235,8.828
		c-1.072,0.58-2.286,1.151-3.28,0.007c-1.471-1.694-2.996-3.394-4.149-5.302c-6.814-11.267-16.024-20.476-25.248-29.681
		c-0.29-0.289-0.638-0.52-1.316-1.066c0.209,3.953,0.348,7.504,0.592,11.047c1.151,16.68,4.874,32.578,14.318,46.721
		c1.921,2.877,3.775,5.799,5.73,8.653c0.704,1.028,1.523,2.017,2.448,2.847c1.615,1.448,1.592,2.447-0.082,3.73
		c-1.839,1.408-3.555,2.976-5.351,4.44c-3.014,2.458-5.828,5.252-9.119,7.264c-9.951,6.083-20.205,7.956-30.652,0.974
		c-0.26-0.174-0.552-0.3-0.829-0.45c-8-4.336-15.809-4.284-23.549,0.772c-3.046,1.99-6.317,3.64-9.513,5.395
		c-2.282,1.253-4.761,1.607-7.319,1.254c-3.806-0.525-7.406-1.668-10.268-4.347c-3.347-3.133-6.653-6.32-9.811-9.642
		c-4.032-4.242-8.701-5.612-14.204-3.536c-2.938,1.108-5.89,2.264-8.65,3.744c-7.194,3.858-14.423,3.862-21.806,0.72
		c-1.075-0.458-2.184-0.837-3.558-1.359c0.102,1.372,0.102,2.438,0.271,3.477c1.302,7.967,4.476,15.212,9.033,21.788
		c7.617,10.99,17.08,19.936,30.045,24.198c18.204,5.983,36.863,7.647,55.666,3.562c15.461-3.359,27.677-12.088,37.446-24.499
		c3.99-5.07,6.045-10.631,6.469-16.958c0.083-1.232,0.548-2.439,0.836-3.658c0.611,0.572,0.844,1.08,0.939,1.612
		c0.121,0.676,0.169,1.372,0.183,2.06c0.097,4.945-0.596,9.761-2.747,14.645C328.091,561.72,344.591,562.002,361.444,562.29z
		 M596.868,330.08c0.93,1.821,1.811,3.34,2.484,4.945c0.388,0.924,0.842,1.125,1.816,1.117c2.886-0.023,5.339,1.036,6.78,3.659
		c0.93,1.693,1.926,3.462,2.318,5.318c2.148,10.16-1.539,18.419-8.942,25.152c-1.579,1.436-3.933,2.292-6.075,2.788
		c-6.118,1.418-11.155-2.895-11.135-9.186c0.002-0.556-0.337-1.356-0.775-1.632c-2.597-1.631-5.388-2.628-8.549-2.494
		c-1.499,0.063-2.438,0.58-3.131,1.916c-2.592,4.996-4.431,10.23-5.737,15.716c-3.844,16.141,5.296,31.295,15.026,37.139
		c5.365,3.223,11.036,5.805,17.123,7.279c5.997,1.452,12.123,2.87,18.283,1.671c5.096-0.992,10.059-2.71,15.039-4.243
		c4.975-1.531,9.151-4.427,12.792-8.092c5.744-5.781,9.925-12.544,11.948-20.454c3.52-13.762,3.697-27.533-0.999-41.085
		c-2.96-8.54-8.223-15.284-16.293-19.759c-11.647-6.459-23.791-6.523-36.195-3.035C600.562,327.385,598.762,328.976,596.868,330.08z
		 M379.318,533.842c-0.261,0.41-0.418,0.776-0.676,1.045c-4.938,5.155-8.005,11.398-10.364,18.019
		c-2.456,6.891-1.404,10.729,4.076,15.655c3.928,3.531,8.447,6.13,13.278,8.183c18.264,7.761,37.23,10.216,56.894,7.542
		c9.603-1.306,18.918-3.5,27.56-8.061c5.917-3.122,11.112-7.115,15.214-12.449c1.865-2.425,3.003-5.097,2.642-8.228
		c-0.458-3.98-1.663-7.726-4.752-10.41c-3.408-2.96-7.063-5.639-10.675-8.355c-0.366-0.276-1.297-0.167-1.756,0.111
		c-1.881,1.135-3.575,2.616-5.526,3.591c-17.284,8.64-35.627,10.974-54.544,8.145c-10.951-1.637-20.525-6.977-29.457-13.401
		C380.681,534.835,380.134,534.435,379.318,533.842z M526.209,414.812c2.268,2.701,4.725,4.314,7.603,5.316
		c12.886,4.484,25.895-4.139,27.091-17.771c0.496-5.653-0.647-11-2.048-16.367c-1.213-4.648-2.008-9.334-1.401-14.174
		c1.354-10.809,11.217-17.977,21.549-15.317c2.633,0.678,4.981,2.458,7.092,3.542c2.082-1.951,4.324-4.052,6.585-6.17
		c-7.394-3.702-15.499-3.983-23.778-5.342c9.089-2.546,17.519-2.405,25.452,2.601c1.816-3.135,1.701-4.341-0.71-6.619
		c-1.325-1.251-2.638-2.54-4.101-3.618c-9.083-6.691-18.953-10.312-30.394-7.529c-2.011,0.489-4.021,0.988-6.146,1.511
		c4.18-4.301,9.628-5.399,15.05-5.87c10.368-0.9,19.378,2.609,27.242,10.059c-0.153-0.865-0.189-1.287-0.305-1.686
		c-0.966-3.321-3.185-5.64-6.005-7.481c-11.096-7.246-23.134-9.155-35.934-6.077c-6.232,1.499-12.149,3.923-16.759,8.581
		c-7.375,7.454-9.433,16.429-7.35,26.598c1.445,7.053,4.29,13.519,7.611,19.823c2.855,5.42,5.335,10.99,6.395,17.063
		c1.255,7.187-0.809,13.182-6.794,17.608c-2.467,1.824-5.203,2.434-8.21,1.649C527.534,415.035,527.11,414.981,526.209,414.812z
		 M491.891,564.526c22.619,0.873,45.253,1.746,68.294,2.635c-2.325-5.494-1.251-10.517,0.823-15.579
		c-0.741-0.1-1.229-0.167-1.717-0.231c-4.839-0.635-7.307-3.626-7.068-8.512c0.254-5.194,2.492-9.302,6.773-12.228
		c2.088-1.427,3.719-2.896,2.611-5.763c-0.257-0.665-0.117-1.495-0.11-2.249c0.036-3.646,0.056-7.293,0.153-10.938
		c0.033-1.232-0.359-1.752-1.584-1.5c-3.99,11.704-8.968,20.008-16.286,27.094c-3.091,2.994-6.526,5.315-11.144,5.135
		c-0.246,0.76-0.454,1.479-0.711,2.18c-0.941,2.574-2.783,3.95-5.527,4.108c-4.404,0.255-8.22-0.938-11.597-3.961
		c-7.861-7.036-13.922-15.39-18.326-24.899c-3.988-8.611-7.613-17.391-11.39-26.1c-2.204-5.083-2.187-5.042-7.601-3.811
		c-1.186,0.27-1.492,0.816-1.531,1.911c-0.341,9.421-0.745,18.84-1.08,28.262c-0.188,5.289,0.547,10.72-2.599,15.271
		c3.836,1.937,7.615,3.752,11.307,5.729c6.918,3.706,10.024,9.663,9.7,17.382C493.2,560.411,492.416,562.33,491.891,564.526z
		 M647.482,549.028c-3.852,1.601-7.365,3.267-11.014,4.542c-14.81,5.174-29.963,7.117-45.492,4.049
		c-7.674-1.516-15.155-3.715-21.698-8.284c-0.232-0.162-0.617-0.334-0.833-0.25c-1.521,0.591-3.165,1.041-4.452,1.975
		c-0.583,0.424-0.396,1.86-0.632,2.818c-1.392,5.664-0.094,10.796,2.851,15.702c2.971,4.95,6.757,9.083,11.646,12.141
		c13.304,8.32,27.901,11.432,43.351,9.663c9.901-1.134,18.781-5.146,24.761-13.585c2.738-3.864,4.787-8.255,6.838-12.556
		c1.602-3.359,1.678-7.071,1.211-10.741c-0.085-0.666-0.407-1.521-0.911-1.877C651.169,551.255,649.112,550.052,647.482,549.028z
		 M640.017,503.475c-1.035,0.402-1.491,0.596-1.957,0.759c-10.419,3.635-21.074,5.39-32.07,3.544
		c-7.049-1.184-14.272-2.079-19.787-7.432c-0.067-0.065-0.23-0.032-0.521-0.064c-1.874,3.503-3.022,7.231-2.698,11.292
		c0.245,3.068,0.459,6.159,1.022,9.177c2.522,13.518,10.724,23.688,25.409,26.327c10.312,1.853,18.193-2.563,24.526-9.771
		c4.066-4.628,6.374-10.633,6.568-16.97C640.677,514.84,640.213,509.324,640.017,503.475z M612.802,504.892
		c8.545,0.008,16.154-1.331,21.97-3.803c4.871-2.07,8.375-5.126,9.074-10.965c1.202-10.036-3.921-19.118-10.98-22.692
		c-6.261-3.17-12.847-5.191-19.979-4.517c-14.629,1.382-25.722,7.725-28.383,23.262c-0.534,3.117-0.647,5.787,2.215,8.106
		c3.156,2.559,5.671,5.969,9.672,7.365C602.183,503.67,608.13,504.952,612.802,504.892z M154.109,500.214
		c0,2.906,0.239,5.917-0.043,8.878c-0.972,10.184-4.041,19.81-8.234,29.095c-2.887,6.393-6.884,11.968-12.289,16.509
		c-1.437,1.207-2.825,2.53-3.986,3.997c-3.133,3.96-2.413,10.826,1.313,13.699c6.022,4.644,13.354,5.107,19.945,1.294
		c3.881-2.245,7.131-5.211,9.597-8.916c2.922-4.391,5.541-8.982,8.43-13.396c0.891-1.362,1.036-2.498,0.513-4.016
		c-1.409-4.089-2.3-8.285-0.92-12.566c0.406-1.258-0.007-1.656-0.986-2.325c-2.738-1.873-5.489-3.784-7.943-6.002
		c-2.826-2.555-2.934-4.265-0.9-7.472c2.458-3.877,5.052-7.667,7.568-11.507c0.538-0.82,0.995-1.693,1.485-2.534
		c-2.508-0.477-4.928-0.656-7.134-1.436C158.266,502.716,156.218,501.327,154.109,500.214z M564.665,460.304
		c-1.564,2.279-2.947,4.53-4.56,6.603c-5.987,7.69-12.04,15.328-18.099,22.962c-0.683,0.86-1.104,1.436-0.223,2.549
		c5.452,6.89,13.153,10.952,20.041,16.421c0.11-0.665,0.174-1.019,0.226-1.374c0.91-6.126,2.49-12.067,5.001-17.737
		c0.335-0.757,0.939-1.395,1.418-2.089c0.304,0.12,0.607,0.241,0.911,0.361c-1.066,6.058-2.461,12.082-3.107,18.185
		c-0.65,6.141-0.556,12.36-0.801,18.873c3.626-1.914,6.691-3.6,9.817-5.164c3.003-1.503,3.001-1.446,2.706-4.845
		c-0.578-6.668-0.134-13.023,5.97-17.805c-4.88-7.064-4.112-14.56-1.365-22.042C575.56,471.386,569.665,466.499,564.665,460.304z
		 M640.853,503.052c0.051,0.233,0.05,0.37,0.108,0.474c3.138,5.612,5.52,11.437,5.195,18.052c-0.022,0.442,0.161,1.096,0.48,1.318
		c1.838,1.278,3.746,2.456,5.842,3.804c2.934-16.419,3.137-32.588,2.129-48.872c0.705,0.867,1.126,1.754,1.359,2.687
		c0.656,2.621,1.204,5.27,1.87,7.888c0.154,0.606,0.489,1.277,0.951,1.674c1.71,1.467,3.592,2.74,5.249,4.261
		c1.556,1.429,2.909,3.079,4.389,4.672c0.46-0.514,0.61-0.634,0.699-0.789c3.437-5.99,6.742-12.061,10.375-17.929
		c1.14-1.84,1.135-3.045-0.081-4.666c-3.961-5.28-7.832-10.627-11.751-15.939c-0.871-1.18-1.796-2.32-2.793-3.605
		c-5.676,6.726-12.654,11.384-19.885,15.764c0.79,1.581,1.559,3.02,2.241,4.498c2.599,5.638,2.352,11.474,1.197,17.383
		C647.561,498.156,644.29,500.595,640.853,503.052z M680.763,484.082c-2.056,3.394-4.102,6.611-5.981,9.923
		c-1.809,3.187-1.788,3.278,0.635,6.044c4.676,5.336,9.333,10.694,14.168,15.885c3.337,3.583,7.434,6.208,12.059,7.853
		c1.619,0.576,3.413,0.885,5.131,0.901c2.548,0.023,4.065-1.345,4.241-3.875c0.123-1.774,0.089-3.761-0.593-5.344
		c-1.178-2.733-2.502-5.613-4.498-7.743c-5.101-5.445-10.549-10.57-15.972-15.703C687.096,489.318,684.002,486.865,680.763,484.082z
		 M637.679,442.958c-1.855-0.224-3.721-0.448-5.587-0.675c-8.164-0.996-16.284-2.5-24.57-2.067
		c-6.656,0.348-12.887,2.409-18.843,4.385c3.188,5.284,6.311,10.459,9.523,15.782c10.019-4.029,20.419-4.483,30.401-0.357
		C631.676,454.247,634.633,448.686,637.679,442.958z M533.16,540.1c2.979-0.949,5.38-2.804,7.545-5.046
		c7.325-7.586,12.797-16.413,17.189-25.801c-3.904-2.833-7.9-5.733-11.973-8.687c-0.133,0.279-0.296,0.598-0.439,0.925
		c-2.827,6.488-7.169,12.007-11.928,17.061c-2.395,2.544-3.669,4.346-2.585,8.014C532.232,530.841,532.453,535.425,533.16,540.1z
		 M632.32,461.64c5.134,2.073,8.977,5.211,12.243,9.524c5.504-6.057,10.928-11.96,16.252-17.952
		c0.892-1.004,1.473-2.344,1.984-3.614c1.305-3.243,0.364-6.86-2.397-9.427c-2.489-2.315-5.456-2.163-8.059-0.664
		c-2.731,1.572-5.491,3.463-7.505,5.837C640.498,450.456,636.629,455.967,632.32,461.64z M594.341,462.15
		c-3.549-5.074-6.681-10.188-10.481-14.745c-2.27-2.722-5.425-4.83-8.477-6.745c-3.456-2.169-5.989-1.13-7.75,2.575
		c-2.818,5.931-1.652,12.453,3.14,17.376c2.76,2.836,5.593,5.602,8.323,8.466c1.402,1.471,2.649,3.089,4.063,4.754
		C585.944,469.104,589.424,465.207,594.341,462.15z M572.188,546.775c24.732,9.198,49.273,11.604,74.159,1.118
		c-2.263-2.791-4.418-5.447-6.51-8.027c-8.022,7.905-16.927,13.992-28.933,12.446c-11.302-1.456-21.052-5.813-26.651-16.403
		C580.111,539.638,576.254,543.112,572.188,546.775z M578.17,521.125c-0.366,0.212-0.902,0.514-1.43,0.829
		c-6.1,3.622-11.343,8.31-16.499,13.129c-2.468,2.306-3.555,5.118-3.775,8.365c-0.167,2.47,0.984,3.821,3.44,4.015
		c3.147,0.248,6.036-0.728,8.533-2.492c4.907-3.467,9.669-7.139,14.175-10.49C581.108,529.951,579.652,525.578,578.17,521.125z
		 M380.501,492.505c-5.956,1.673-10.888,0.725-15.913-2.157c2.258,11.908,4.994,23.065,12.361,32.419
		c0.297-0.026,0.593-0.052,0.89-0.078C378.713,512.772,379.588,502.856,380.501,492.505z M646.309,524.413
		c-1.539,3.95-2.949,7.5-4.283,11.078c-0.156,0.419-0.085,1.165,0.195,1.467c2.862,3.084,5.617,6.303,8.767,9.069
		c1.71,1.501,4.022,2.71,6.241,3.151c3.765,0.748,5.535-1.3,4.999-5.125c-0.473-3.379-1.693-6.543-4.127-8.923
		C654.301,531.415,650.243,527.963,646.309,524.413z M428.779,465.943c2.543,12.178,2.558,23.905-4.527,34.759
		c0.295,0.027,0.438,0.086,0.513,0.039c0.477-0.302,0.96-0.6,1.401-0.95c4.572-3.622,7.949-8.058,10.13-13.552
		c2.577-6.491,3.054-13.298,3.812-20.09c0.168-1.502,0.341-3.003,0.532-4.682C436.468,463.041,432.664,464.477,428.779,465.943z
		 M587.326,363.425c1.736,4.654,4.686,6.106,8.975,4.342c1.582-0.651,3.094-1.712,4.336-2.902c3.06-2.931,5.064-6.589,6.11-10.668
		c1.16-4.525,0.998-8.977-1.663-13.067c-1.068-1.641-2.527-2.62-4.627-2.968C602.37,349.952,597.463,358.055,587.326,363.425z
		 M674.211,375.101c-0.605-2.741-0.951-5.574-1.881-8.2c-1.128-3.188-3.583-3.958-6.715-2.649c-0.996,0.416-1.397,0.98-1.404,2.125
		c-0.026,4.712,0.015,9.439-0.368,14.127c-0.187,2.284,0.477,3.824,1.994,5.328c2.212,2.194,3.727,2.126,5.39-0.56
		C673.133,382.198,673.9,378.79,674.211,375.101z M396.82,469.37c3.423,6.724,5.226,13.443,4.431,20.755
		c4.5-6.256,7.274-13.064,8.179-20.755C405.176,469.37,401.128,469.37,396.82,469.37z M618.622,429.446
		c-5.601-0.353-11.195-0.705-16.583-1.044c0,2.673,0,5.482,0,7.978c6.148,0,12.327,0,18.432,0
		C619.787,433.814,619.182,431.545,618.622,429.446z M561.76,378.118c2.102-5.364,4.291-10.951,6.39-16.308
		C563.129,364.314,560.511,370.954,561.76,378.118z M174.505,559.67c-1.368-2.955-2.564-5.537-3.849-8.313
		c-1.204,2.873-2.321,5.536-3.485,8.313C169.607,559.67,171.866,559.67,174.505,559.67z"/>
	<path d="M502.411,510.955c2.293,0,4.697,0.572,6.599-0.159c1.941-0.746,3.389-2.774,5.124-4.302
		c0.769,2.621-2.011,6.415-5.045,7.198C505.994,514.491,503,513.28,502.411,510.955z"/>
	<path d="M387.805,357.095c0.924,1.446,2.093,2.791,2.732,4.353c4.117,10.058,4.948,20.166,0.348,30.376
		c-2.4,5.327-4.636,10.732-6.77,16.171c-0.888,2.265-1.394,4.692-1.938,7.076c-1.193,5.228-0.14,10.096,2.523,14.685
		c0.549,0.946,0.963,1.971,1.612,3.32c-3.037-1.268-4.547-3.352-5.735-5.755c-2.696-5.454-3.124-11.234-1.378-16.903
		c2.084-6.767,4.478-13.487,7.364-19.947c3.968-8.883,4.792-17.873,2.554-27.233c-0.319-1.334-0.895-2.606-1.352-3.907
		c-0.218-0.622-0.436-1.244-0.654-1.866C387.342,357.342,387.574,357.219,387.805,357.095z"/>
	<path d="M437.224,429.193c-0.833-0.8-1.8-1.5-2.476-2.416c-4.854-6.576-5.297-13.927-3.581-21.595
		c0.985-4.403,2.792-8.477,5.316-12.217c4.815-7.137,10.202-13.908,13.87-21.777c0.119-0.255,0.397-0.437,1.073-0.604
		c0,0.701,0.199,1.478-0.034,2.091c-1.139,2.992-2.173,6.056-3.656,8.878c-2.426,4.616-5.1,9.108-7.797,13.575
		c-4.216,6.982-6.476,14.486-5.791,22.643c0.225,2.681,1.38,5.294,2.2,7.91c0.332,1.06,0.906,2.045,1.37,3.063
		C437.553,428.893,437.389,429.043,437.224,429.193z"/>
	<path d="M392.56,558.739c1.963,2.969,3.783,6.052,5.932,8.884c2.511,3.307,5.765,5.608,10.199,4.676
		c3.491-0.734,5.714-3.369,7.411-6.275c0.924-1.582,1.379-3.489,1.781-5.308c0.341-1.545-0.303-2.461-2.158-2.351
		c-6.375,0.378-12.512-0.825-18.464-3.053c-1.055-0.395-2.141-0.808-3.051-1.445c-0.513-0.359-1.044-1.274-0.923-1.787
		c0.107-0.453,1.12-0.997,1.708-0.97c1.428,0.066,2.873,0.33,4.257,0.711c5.616,1.547,11.29,2.371,17.141,2
		c3.402-0.216,5.201,1.383,5.479,4.782c0.125,1.534-0.021,3.154-0.383,4.653c-1.185,4.901-4.259,8.506-8.394,11.185
		c-3.726,2.414-7.654,2.2-11.463,0.145C396.666,571.904,392.46,564.44,392.56,558.739z"/>
	<path d="M444.375,560.953c1.484,2.217,2.933,4.491,4.494,6.685c1.626,2.286,3.803,3.833,6.617,4.323
		c2.888,0.503,5.415-0.312,7.319-2.518c2.84-3.29,3.972-7.276,3.912-11.534c-0.047-3.378-1.605-4.392-4.78-3.285
		c-5.645,1.968-11.403,3.088-17.4,2.625c-0.995-0.077-2.043-0.19-2.938-0.58c-0.642-0.279-1.07-1.049-1.593-1.599
		c0.561-0.505,1.054-1.312,1.695-1.456c1.708-0.383,3.505-0.358,5.221-0.714c4.543-0.942,9.081-1.925,13.586-3.032
		c4.298-1.056,7.174,0.022,8.862,3.557c3.012,6.309-1.965,18.439-8.621,20.538c-1.826,0.576-4.014,0.635-5.902,0.258
		C449.584,573.171,444.379,566.339,444.375,560.953z"/>
	<path d="M630.864,489.499c-1.549,0.845-3.021,1.902-4.66,2.498c-7.967,2.894-15.977,2.984-23.952-0.025
		c-1.048-0.395-2.14-0.835-2.992-1.526c-0.511-0.415-0.596-1.356-0.873-2.06c0.699-0.255,1.437-0.802,2.09-0.714
		c2.36,0.317,4.699,0.815,7.033,1.304c5.366,1.123,10.721,0.866,16.109,0.109c2.309-0.324,4.674-0.247,7.013-0.353
		C630.71,488.988,630.787,489.244,630.864,489.499z"/>
</g>
</svg>
