<?xml version="1.0" encoding="utf-8"?>
<!-- Generator: Adobe Illustrator 23.0.3, SVG Export Plug-In . SVG Version: 6.00 Build 0)  -->
<svg version="1.1" id="Layer_1" xmlns="http://www.w3.org/2000/svg" xmlns:xlink="http://www.w3.org/1999/xlink" x="0px" y="0px"
	 viewBox="0 0 314.8 36.3" style="enable-background:new 0 0 314.8 36.3;" xml:space="preserve">
<path d="M0,17.2c20-0.4,39.9-0.7,59.9-0.5c20.7,0.2,41.4,0,62.2-0.1c7.2,0,14.4,0.1,21.7,0.3c4.3,0.1,8.6,0.4,12.9,0.6
	c6.4,0.4,12.8,0.2,19.2,0.1c6.7-0.1,13.4-0.4,20.1-0.4c15.8,0,31.5,0.1,47.3,0.2c6.8,0,13.6,0,20.3,0c9.7,0,19.5,0,29.2,0
	c6,0,12.1-0.1,18.1-0.1c1.3,0,2.6,0.1,3.9,0.1c0,0.1,0,0.2,0,0.2c-0.4,0-0.8,0.1-1.3,0.1c-8.5,0.2-16.9,0.5-25.4,0.4
	c-4.8-0.1-9.7,0-14.5,0c-14.6,0-29.1,0-43.7,0c-15.4,0-30.9,0-46.3,0.1c-4.3,0-8.7,0.2-13,0.3c-7.6,0.2-15.1-0.2-22.5-0.7
	c-9.1-0.6-18.2-0.6-27.3-0.5c-24.7,0.2-49.5,0.7-74.2,0.6c-7,0-13.9,0.1-20.9,0.2"/>
</svg>
