<?xml version="1.0" encoding="utf-8"?>
<!-- Generator: Adobe Illustrator 17.0.0, SVG Export Plug-In . SVG Version: 6.00 Build 0)  -->
<!DOCTYPE svg PUBLIC "-//W3C//DTD SVG 1.1//EN" "http://www.w3.org/Graphics/SVG/1.1/DTD/svg11.dtd">
<svg version="1.1" id="Layer_1" xmlns="http://www.w3.org/2000/svg" xmlns:xlink="http://www.w3.org/1999/xlink" x="0px" y="0px"
	 width="285.815px" height="183.208px" viewBox="0 0 285.815 183.208" enable-background="new 0 0 285.815 183.208"
	 xml:space="preserve">
<g>
	<path fill="#6C6A67" d="M18.105,181.712c2.152-0.682,4.278-1.128,6.378-1.339v-50.87c-2.416-0.367-4.542-0.839-6.378-1.418v-0.787
		h13.308l18.27,43.783l19.135-43.783h13.072v0.787c-1.523,0.525-3.649,1.024-6.378,1.496v50.792
		c2.099,0.211,4.225,0.657,6.378,1.339v0.709H63.542v-0.709c1.89-0.63,4.016-1.103,6.378-1.417v-48.745l-19.687,44.729h-3.229
		l-19.372-45.043v49.06c2.205,0.314,4.331,0.787,6.378,1.417v0.709H18.105V181.712z"/>
	<path fill="#6C6A67" d="M136.226,171.869l-1.023,10.552H96.537v-0.787c2.1-0.682,4.278-1.129,6.536-1.339v-50.792
		c-2.153-0.263-4.331-0.734-6.536-1.418v-0.787h38.665v10.631h-1.339c-0.368-0.682-0.735-1.93-1.103-3.74
		c-0.368-1.812-0.604-3.269-0.708-4.371h-23.388v23.86h17.325c0.104-0.892,0.288-1.994,0.551-3.307
		c0.262-1.312,0.551-2.362,0.866-3.15h1.023v15.355h-1.023c-0.315-0.839-0.604-1.901-0.866-3.188
		c-0.264-1.286-0.447-2.375-0.551-3.269h-17.325v23.86h23.546c0.052-0.996,0.38-2.401,0.984-4.213
		c0.603-1.811,1.142-3.11,1.614-3.897H136.226z"/>
	<path fill="#6C6A67" d="M151.423,181.712c2.152-0.682,4.278-1.128,6.379-1.339v-50.87c-2.416-0.367-4.542-0.839-6.379-1.418v-0.787
		h12.915l31.893,47.8v-45.674c-2.626-0.366-4.752-0.813-6.379-1.339v-0.787h15.828v0.787c-1.313,0.421-3.439,0.894-6.379,1.418
		v52.918h-3.465l-34.885-51.895v49.769c2.205,0.314,4.331,0.787,6.379,1.417v0.709h-15.907V181.712z"/>
	<path fill="#6C6A67" d="M226.704,165.805v-36.303c-2.415-0.367-4.541-0.839-6.378-1.418v-0.787h18.348v0.787
		c-1.838,0.63-3.965,1.103-6.379,1.418v37.011c0,5.146,1.443,8.794,4.332,10.946c2.886,2.153,6.823,3.229,11.812,3.229
		c4.725,0,8.505-1.115,11.34-3.347c2.835-2.23,4.252-5.84,4.252-10.828v-37.09c-2.153-0.209-4.306-0.655-6.457-1.339v-0.787h15.985
		v0.787c-1.89,0.579-4.068,1.077-6.536,1.496v36.225c0,5.984-1.681,10.382-5.04,13.189c-3.359,2.81-8.347,4.213-14.961,4.213
		C233.477,183.208,226.704,177.408,226.704,165.805z"/>
</g>
<g>
	<path d="M95.845,102.621c0.454-1.309,2.513-0.333,1.888,0.809c0,0-1.349,3.103-4.046,8.229
		c-4.367,8.519-13.736,26.109-22.656,33.456c-3.505,3.068-9.28,5.421-13.486,1.214c-4.456-5.572-5.489-15.029-5.664-23.609
		c-0.135-6.61,0.405-13.355,1.079-19.966c1.783-15.888,5.137-31.183,8.496-45.463c-15.844,1.378-33.362,2.599-47.336,0.27
		C8.236,56.58,2.573,54.557,0.5,50.411c-0.287-0.575-0.965-1.271,0-1.754c1.078-1.078,1.882,1.273,2.293,1.889
		c3.376,5.066,13.447,6.311,22.116,6.61c10.651,0.542,25.485-0.566,36.951-1.484c3.525-12.929,7.389-25.882,12.137-36.963
		c2.304-5.866,4.965-11.471,7.552-15.784l1.214-2.024c1.104-2.071,4.517-0.207,3.237,1.889l-1.214,2.024
		C76.408,18.782,70.237,37.4,65.501,55.404c32.363-3.011,75.423-8.332,101.818-11.332c0.539,0,1.079,0.54,1.079,1.079
		c0,0.54-0.405,0.135-0.944,1.484c-26.583,2.046-70.934,7.569-102.627,10.388l-2.023,8.094c-4.345,17.581-8.226,36.443-8.226,57.605
		c0.154,7.402,0.882,14.715,3.641,20.235c6.393,10.659,19.379-8.789,21.442-11.737c7.418-10.859,11.702-20.083,16.183-28.599
		L95.845,102.621L95.845,102.621z M119.418,98.98c-7.067,2.828-12.958,8.781-17.936,13.76c-0.569,0.506-3.603,4.625-4.72,3.507
		c-0.27-0.135-0.405-0.27-0.405-0.54c-0.539-1.889-0.674-3.912-0.674-5.801c0-6.113,0.898-11.515,1.888-16.863
		c3.897-19.139,9.311-37.868,17.396-53.422c1.597-3.462,3.742-7.094,6.473-9.578c1.479-0.986,4.426-2.735,6.069-0.27
		c8.249,9.902,1.752,29.338-2.158,38.582c-6.069,13.76-15.643,25.901-27.377,35.075c0,0.405-0.135,0.675-0.135,1.079
		c-0.135,2.833-0.27,5.801,0,8.499c4.516-5.647,9.35-10.846,15.778-14.704c2.54-1.525,5.843-3.096,9.44-3.373
		c11.352,0,12.208,9.718,19.689,13.086c6.7,2.681,12.667-2.817,16.048-5.801c0.953-0.953,2.442,0.525,1.483,1.484h-0.135
		c-4.294,3.165-10.65,8.702-17.936,5.666c-5.801-2.418-8.723-9.486-14.564-11.332c-2.816-1.127-5.97,0.041-8.226,0.944
		L119.418,98.98L119.418,98.98z M104.718,71.593c-2.961,9.81-4.51,19.185-6.608,29.679c11.058-9.039,19.959-20.64,25.759-33.726
		c2.726-6.446,5.208-13.468,5.799-21.45c0.417-5.631-0.314-12.32-3.371-15.379c-4.438-4.44-12.754,15.338-14.43,19.696
		c-2.697,6.88-5.125,14.03-7.147,21.18L104.718,71.593L104.718,71.593z M199.438,102.351c0.27-0.54,0.944-0.54,0.944-0.135
		c0.405,0.405,0.539,1.079,0.135,1.484v0.135c-3.227,3.229-7.896,8.542-12.002,12.276c-4.425,4.427-9.749,9.277-16.048,11.871
		c-5.906,2.215-9.975-2.735-9.17-9.173c0.27-2.158,0.539-4.317,0.809-6.206c0.994-6.963-2.813-6.506-5.529-10.388
		c-1.189-1.982,1.145-7.084,3.506-4.722c0.898,0.718,0.471,1.957-0.135,2.563c-0.135,0-0.135,0.135-0.135,0.135
		c-0.135,0-0.135,0.135-0.135,0.135c0.135,0.27,1.079,1.079,2.293,1.889c1.541,1.349,3.268,2.957,4.046,6.071v1.619
		c0,5.554-4.604,18.351,4.046,16.188c4.258-1.065,8.221-4.537,11.193-7.015c1.618-1.484,3.237-2.833,4.585-4.182l3.911-3.912
		c2.427-2.563,4.315-4.722,5.664-6.206C198.764,103.295,199.438,102.351,199.438,102.351L199.438,102.351L199.438,102.351z
		 M211.646,97.495c-1.034,4.655-4.754,8.094-9.845,8.094h-0.539c-1.478,5.175-3.317,16.411,5.125,14.3
		c5.349-1.338,9.732-5.228,13.216-8.364c3.649-3.286,5.8-6.253,7.822-9.173c0.868-1.158,2.688-0.124,1.618,1.214
		c-5.307,6.635-12.039,15.031-21.983,18.347c-12.265,4.09-10.378-14.416-7.013-20.775c1.584-2.992,4.465-6.477,8.496-6.88
		c0.405,0,0.809-0.135,1.214,0c0.27,0,0.539,0.135,0.809,0.27c0.27,0,0.405,0.135,0.539,0.27c0,0.135,0.135,0.27,0.27,0.405v-0.27
		c0.405,0.675,0.405,1.079,0.405,1.484c0,0.405-0.135,0.809-0.135,1.079L211.646,97.495L211.646,97.495z M202.745,102.487
		c0.27,0,0.674-0.135,1.079-0.135c1.898-0.633,4.224-2.623,4.72-4.857C205.925,97.496,203.914,100.44,202.745,102.487
		L202.745,102.487z M239.264,97.495c-1.034,4.655-4.754,8.094-9.845,8.094h-0.539c-1.478,5.175-3.317,16.411,5.125,14.3
		c5.349-1.338,9.732-5.228,13.216-8.364c3.649-3.286,5.8-6.253,7.822-9.173c0.868-1.158,2.688-0.124,1.618,1.214
		c-5.307,6.635-12.039,15.031-21.983,18.347c-12.265,4.09-10.378-14.416-7.013-20.775c1.584-2.992,4.465-6.477,8.496-6.88
		c0.405,0,0.809-0.135,1.214,0c0.27,0,0.539,0.135,0.809,0.27c0.27,0,0.405,0.135,0.539,0.27c0,0.135,0.135,0.27,0.27,0.405v-0.27
		c0.405,0.675,0.405,1.079,0.405,1.484c0,0.405-0.135,0.809-0.135,1.079L239.264,97.495L239.264,97.495z M230.363,102.487
		c0.27,0,0.674-0.135,1.079-0.135c1.898-0.633,4.224-2.623,4.72-4.857C233.544,97.496,231.533,100.44,230.363,102.487
		L230.363,102.487z"/>
</g>
</svg>
